<?xml version="1.0" encoding="UTF-8"?>
<!DOCTYPE svg PUBLIC "-//W3C//DTD SVG 1.1//EN" "http://www.w3.org/Graphics/SVG/1.1/DTD/svg11.dtd">
<!-- Creator: CorelDRAW 2021.5 (Evaluation Version) -->
<svg xmlns="http://www.w3.org/2000/svg" xml:space="preserve" width="200px" height="100px" version="1.1" style="shape-rendering:geometricPrecision; text-rendering:geometricPrecision; image-rendering:optimizeQuality; fill-rule:evenodd; clip-rule:evenodd"
viewBox="0 0 34.9 20.94"
 xmlns:xlink="http://www.w3.org/1999/xlink"
 xmlns:xodm="http://www.corel.com/coreldraw/odm/2003">
 <defs>
  <style type="text/css">
   <![CDATA[
    .fil1 {fill:#FEFEFE;fill-rule:nonzero}
    .fil0 {fill:#6F519F;fill-rule:nonzero}
   ]]>
  </style>
 </defs>
 <g id="Слой_x0020_1">
  <metadata id="CorelCorpID_0Corel-Layer"/>
  <g id="_1718785386864">
   <polygon class="fil0" points="0,20.94 34.9,20.94 34.9,0 0,0 "/>
   <path class="fil1" d="M14.86 10.46c0,0.94 -0.76,1.7 -1.7,1.7 -0.26,0 -0.52,-0.07 -0.74,-0.18 0.02,-0.01 0.04,-0.03 0.06,-0.05 0.08,-0.07 0.16,-0.15 0.25,-0.22 0.08,-0.08 0.17,-0.16 0.26,-0.24l0.01 -0.02 0.02 -0.01 0.02 -0.01 0.02 -0.01c0.02,-0.01 0.05,-0.02 0.08,-0.03 0.05,-0.02 0.11,-0.04 0.17,-0.05 0.24,-0.06 0.48,-0.13 0.67,-0.26 0.03,-0.01 0.05,-0.03 0.08,-0.04 0.02,-0.02 0.04,-0.04 0.06,-0.06 0.03,-0.01 0.05,-0.03 0.07,-0.05 0.02,-0.02 0.04,-0.04 0.05,-0.06 0.01,-0.01 0.02,-0.02 0.03,-0.03 0.01,-0.01 0.02,-0.02 0.03,-0.03 0.01,-0.03 0.01,-0.06 0.01,-0.09 0,-0.01 0,-0.02 -0.01,-0.04 0,0 0,-0.01 -0.01,-0.01 0,-0.01 0,-0.01 0,-0.01l0 0c0,-0.01 -0.01,-0.01 -0.01,-0.01 -0.02,-0.03 -0.04,-0.04 -0.06,-0.04 0.02,-0.01 0.03,-0.03 0.04,-0.05 0.02,-0.04 0.02,-0.09 0.01,-0.12 -0.01,-0.04 -0.04,-0.07 -0.06,-0.09 -0.01,-0.01 -0.01,-0.01 -0.01,-0.01 -0.03,-0.02 -0.06,-0.02 -0.07,-0.02 0,0 -0.01,0 -0.01,0 0.03,-0.02 0.04,-0.05 0.06,-0.08 0,-0.03 0,-0.06 -0.01,-0.09 -0.01,-0.03 -0.02,-0.05 -0.04,-0.07 -0.02,-0.02 -0.04,-0.04 -0.06,-0.05 -0.01,0 -0.02,-0.01 -0.03,-0.01 -0.01,0 -0.02,0 -0.02,0 0,0 -0.01,0 -0.01,0 -0.02,0 -0.03,0 -0.04,0 0.01,-0.01 0.01,-0.02 0.02,-0.03 0,-0.03 0,-0.07 -0.01,-0.1 -0.01,-0.03 -0.03,-0.05 -0.06,-0.08 -0.02,-0.02 -0.06,-0.03 -0.09,-0.03 -0.04,0 -0.07,0 -0.1,0.02 -0.03,0.01 -0.05,0.03 -0.08,0.04 -0.11,0.06 -0.21,0.13 -0.31,0.18 -0.03,0.01 -0.05,0.03 -0.08,0.04 -0.02,0.01 -0.05,0.02 -0.07,0.02 -0.02,0.01 -0.03,0.01 -0.04,0.01 -0.01,-0.01 -0.03,-0.02 -0.04,-0.04 0,0 0,0 -0.01,-0.01 0,-0.01 -0.01,-0.01 -0.01,-0.02 -0.01,-0.02 -0.01,-0.04 -0.02,-0.06 -0.01,-0.04 -0.01,-0.08 -0.01,-0.12 -0.01,-0.09 -0.02,-0.2 -0.07,-0.29 -0.03,-0.04 -0.06,-0.08 -0.1,-0.11 -0.03,-0.04 -0.07,-0.07 -0.12,-0.09 -0.01,0 -0.02,-0.01 -0.03,-0.01 -0.02,0 -0.03,-0.01 -0.04,-0.01 -0.02,0 -0.04,0 -0.07,0 0,0 -0.01,0 -0.01,0l0 0c-0.09,-0.01 -0.13,0.05 -0.13,0.05 -0.08,0.06 0.06,0.18 0.06,0.18 0.01,0.02 0.02,0.04 0.03,0.06 0.03,0.04 0.05,0.08 0.06,0.13 0.01,0.03 0.01,0.05 0.02,0.08 0,0.03 0,0.05 0,0.08 0,0.06 -0.01,0.11 -0.01,0.17 0,0.03 -0.01,0.06 -0.01,0.08 0,0.02 0,0.03 0,0.05 0,0.01 0,0.03 0,0.04 0,0.07 0.01,0.12 0.02,0.18 0.01,0.06 0.02,0.11 0,0.17 -0.03,0.1 -0.12,0.19 -0.21,0.26 -0.09,0.07 -0.19,0.13 -0.29,0.18 -0.09,0.05 -0.19,0.1 -0.28,0.15 -0.04,0.03 -0.09,0.05 -0.13,0.07 -0.02,0.01 -0.04,0.02 -0.06,0.03 -0.14,-0.24 -0.22,-0.53 -0.22,-0.83 0,-0.93 0.76,-1.69 1.69,-1.69 0.94,0 1.7,0.76 1.7,1.69z"/>
   <path class="fil1" d="M16.92 10.36c0,-0.2 -0.07,-0.37 -0.21,-0.51 -0.14,-0.14 -0.31,-0.21 -0.52,-0.21 -0.2,0 -0.37,0.07 -0.51,0.21 -0.14,0.14 -0.21,0.31 -0.21,0.51 0,0.2 0.07,0.37 0.21,0.51 0.14,0.14 0.31,0.21 0.51,0.21 0.21,0 0.38,-0.07 0.52,-0.21 0.14,-0.14 0.21,-0.31 0.21,-0.51zm-1.22 0c0,-0.14 0.05,-0.26 0.14,-0.35 0.1,-0.1 0.22,-0.15 0.35,-0.15 0.14,0 0.26,0.05 0.35,0.15 0.1,0.09 0.15,0.21 0.15,0.35 0,0.14 -0.05,0.26 -0.15,0.36 -0.09,0.09 -0.21,0.14 -0.35,0.14 -0.13,0 -0.25,-0.05 -0.35,-0.14 -0.09,-0.1 -0.14,-0.22 -0.14,-0.36zm1.31 -0.09l0.32 0 0 0.79 0.22 0 0 -0.79 0.32 0 0 -0.21 -0.86 0 0 0.21zm1.02 0.36c0,0.09 -0.01,0.15 -0.04,0.19 -0.03,0.03 -0.08,0.05 -0.14,0.04l0 0.2c0.13,0.01 0.23,-0.02 0.3,-0.09 0.06,-0.06 0.1,-0.18 0.1,-0.33l0 -0.37 0.33 0 0 0.79 0.21 0 0 -1 -0.76 0 0 0.57zm1.22 -0.57l-0.21 0 0 1 0.17 0 0.51 -0.64 0 0.64 0.21 0 0 -1 -0.17 0 -0.51 0.63 0 -0.63zm1.31 0.5c-0.14,0 -0.22,-0.06 -0.22,-0.18l0 -0.32 -0.21 0 0 0.34c0,0.12 0.04,0.21 0.11,0.27 0.07,0.06 0.16,0.09 0.29,0.09 0.09,0 0.17,-0.01 0.25,-0.04l0 0.34 0.21 0 0 -1 -0.21 0 0 0.46c-0.07,0.03 -0.14,0.04 -0.22,0.04zm0.9 -0.1l0 -0.4 -0.22 0 0 1 0.22 0 0 -0.4 0.45 0 0 0.4 0.22 0 0 -1 -0.22 0 0 0.4 -0.45 0zm1.76 0.47c0.1,-0.1 0.15,-0.23 0.15,-0.37 0,-0.15 -0.05,-0.27 -0.15,-0.37 -0.1,-0.1 -0.23,-0.15 -0.37,-0.15 -0.15,0 -0.27,0.05 -0.38,0.15 -0.1,0.1 -0.15,0.22 -0.15,0.37 0,0.14 0.05,0.27 0.15,0.37 0.11,0.1 0.23,0.15 0.38,0.15 0.14,0 0.27,-0.05 0.37,-0.15zm-0.59 -0.59c0.06,-0.06 0.13,-0.09 0.22,-0.09 0.08,0 0.16,0.03 0.22,0.09 0.06,0.05 0.09,0.13 0.09,0.22 0,0.09 -0.03,0.16 -0.09,0.22 -0.06,0.06 -0.14,0.09 -0.22,0.09 -0.09,0 -0.16,-0.03 -0.22,-0.09 -0.06,-0.06 -0.09,-0.13 -0.09,-0.22 0,-0.09 0.03,-0.17 0.09,-0.22z"/>
  </g>
 </g>
</svg>
