<?xml version="1.0" encoding="UTF-8"?>
<!DOCTYPE svg PUBLIC "-//W3C//DTD SVG 1.1//EN" "http://www.w3.org/Graphics/SVG/1.1/DTD/svg11.dtd">
<!-- Creator: CorelDRAW 2021.5 (Evaluation Version) -->
<svg xmlns="http://www.w3.org/2000/svg" xml:space="preserve" width="450px" height="350px" version="1.1" style="shape-rendering:geometricPrecision; text-rendering:geometricPrecision; image-rendering:optimizeQuality; fill-rule:evenodd; clip-rule:evenodd"
viewBox="0 0 3673.77 2203.74"
 xmlns:xlink="http://www.w3.org/1999/xlink"
 xmlns:xodm="http://www.corel.com/coreldraw/odm/2003">
 <defs>
  <style type="text/css">
   <![CDATA[
    .fil0 {fill:#FEFEFE;fill-rule:nonzero}
    .fil1 {fill:#6F519F;fill-rule:nonzero}
   ]]>
  </style>
 </defs>
 <g id="Слой_x0020_1">
  <metadata id="CorelCorpID_0Corel-Layer"/>
  <g id="_1718913779952">
   <polygon class="fil0" points="0,2203.74 3673.77,2203.74 3673.77,-0.01 0,-0.01 "/>
   <polygon class="fil1" points="241.1,1456.65 1327.38,1456.65 1327.38,1337.45 241.1,1337.45 "/>
   <path class="fil1" d="M3417 1512.61c0,248.15 -201.19,449.31 -449.33,449.31 -70.91,0 -137.98,-16.43 -197.61,-45.7 5.34,-4.81 10.83,-9.65 16.28,-14.67 20.68,-18.6 42.49,-38.23 65.07,-58.54 22.76,-20.06 45.92,-41.39 69.38,-63.21l4.39 -4.08 4.33 -3.26 4.24 -3.29 5.06 -2.62c6.53,-3.73 14.13,-6.14 21.41,-9.01 15.12,-4.83 30.62,-9.07 46.33,-13.08 62.64,-15.68 126.4,-34.38 178.85,-67.29 6.79,-3.66 12.78,-8.52 19.05,-12.75 6.22,-4.31 12.39,-8.56 17.91,-13.57 5.66,-4.78 11.26,-9.54 16.8,-14.25 5.04,-5.2 10.04,-10.33 14.93,-15.42 2.48,-2.54 4.94,-5.06 7.35,-7.57 2.38,-2.98 4.69,-6.03 6.38,-9.49 3.5,-6.81 4.97,-14.6 4.24,-22.01 -0.33,-3.69 -1.24,-7.32 -2.51,-10.73 -0.57,-1.72 -1.53,-3.29 -2.27,-4.95 -0.29,-0.72 -1.07,-1.74 -1.28,-2.09l-0.23 -0.33c-0.62,-0.88 -1.22,-1.79 -1.9,-2.61 -4.72,-5.85 -10.71,-8.8 -15.31,-9.87 3.83,-3.65 7.47,-7.85 10.59,-12.91 5.87,-10.84 5.16,-23.5 1.82,-33.37 -3.5,-10.03 -9.44,-18.22 -16.02,-23.63 -1.19,-1.08 -2.05,-1.64 -2.88,-2.18 -6.89,-4.72 -14.33,-6.1 -19.15,-5.24 -0.22,0.03 -0.42,0.07 -0.66,0.11 5.76,-5.93 10.81,-12.95 13.69,-21.76 2.39,-7.54 2.05,-16.12 -0.52,-23.29 -2.41,-7.16 -6.32,-13.49 -11.07,-18.74 -4.74,-5.21 -10.29,-9.36 -16.23,-12.2 -2.95,-1.39 -5.98,-2.54 -9.07,-3.14 -1.46,-0.36 -3.21,-0.68 -4.41,-0.71 -1.09,-0.05 -2.18,-0.12 -3.24,-0.2 -3.5,0.03 -6.66,0.66 -9.39,1.57 1.64,-2.76 2.99,-5.85 3.82,-9.39 1.71,-8.59 0.46,-17.01 -2.51,-24.91 -3.02,-7.88 -7.96,-15.27 -14.81,-20.95 -6.8,-5.68 -15.66,-9.32 -24.73,-9.84 -9.08,-0.58 -18.11,1.41 -25.96,5.12 -7.85,3.54 -14.62,7.76 -21.98,11.64 -28.65,15.96 -55.87,33.89 -82.61,47.72 -6.69,3.34 -13.12,7.27 -19.67,9.93 -6.54,2.73 -13.1,5.09 -19.63,6.78 -3.55,0.91 -7.1,1.71 -10.58,2.31 -3.06,-2.51 -6.92,-5.9 -10.23,-11.09 -0.56,-0.89 -0.81,-1.01 -1.64,-2.51 -1.2,-1.94 -2.31,-4.02 -3.29,-6.24 -1.94,-4.47 -3.64,-9.32 -4.8,-14.54 -2.49,-10.36 -3.66,-21.78 -4.2,-33.67 -0.7,-24.11 -4.02,-52.11 -18.74,-75.43 -7.11,-11.52 -15.64,-21.78 -25.13,-30.96 -9.47,-9.17 -20.17,-17.05 -32.14,-22.24 -2.91,-1.49 -6.05,-2.43 -9.24,-3.13 -3.18,-0.9 -6.27,-1.57 -9.15,-1.96 -5.83,-1.03 -11.85,-1.64 -17.7,-1.72 -1.64,-0.05 -3.3,-0.05 -4.96,0.03l0 0c-21.83,-1.55 -34.74,13.29 -34.74,13.29 -20.48,16.86 16.05,49.42 16.05,49.42 3.47,4.56 6.81,9.22 9.85,14.18 7,11.07 12.39,23.39 15.81,36.61 1.59,6.63 2.91,13.41 3.53,20.4 0.52,7.03 0.5,14.23 0.81,21.43 -0.08,14.48 -1.01,29.26 -2.54,44.3 -0.76,7.59 -1.49,15.2 -2.26,22.82 -0.33,3.87 -0.86,7.62 -1.07,11.6 -0.02,4.07 -0.23,8.19 -0.08,12.26 0.82,16.24 4.96,31.66 7.4,46.75 2.46,15.04 2.98,30.21 -1.24,44.31 -8.52,28.64 -31.46,51.44 -55.07,70.06 -24.06,18.76 -50.28,34.07 -76.38,47.76 -25.88,14.01 -50.89,27.56 -74.62,40.42 -11.74,6.68 -23.6,12.28 -35.05,17.77 -5.79,2.81 -11.4,5.55 -16.84,8.2 -36.51,-64.96 -57.33,-139.92 -57.33,-219.76 0,-248.15 201.15,-449.31 449.3,-449.31 248.14,0 449.33,201.16 449.33,449.31z"/>
   <path class="fil1" d="M315.38 354.35l-36.57 -60.23 -25.84 0 0 127.37 25.11 0 0 -82.42 35.85 58.95 2.91 0 35.85 -59.14 0 82.61 24.93 0 0 -127.37 -25.84 0 -36.4 60.23zm124.29 -26.38c-12.19,0 -22.57,4.73 -31.3,14.01 -8.56,9.28 -12.92,20.75 -12.92,34.03 0,13.46 4.36,24.92 12.92,34.21 8.73,9.27 19.11,13.82 31.3,13.82 12.73,0 22.56,-4.37 29.65,-13.28l0 10.73 23.47 0 0 -90.98 -23.47 0 0 10.74c-7.09,-8.92 -16.92,-13.28 -29.65,-13.28zm-20.75 48.04c0,-7.47 2.37,-13.65 7.1,-18.39 4.73,-4.9 10.73,-7.27 18.01,-7.27 7.28,0 13.28,2.37 18.01,7.27 4.92,4.74 7.28,10.92 7.28,18.39 0,7.45 -2.36,13.64 -7.28,18.56 -4.73,4.73 -10.73,7.09 -18.01,7.09 -7.28,0 -13.28,-2.36 -18.01,-7.09 -4.73,-4.92 -7.1,-11.11 -7.1,-18.56zm134.65 -48.04c-12.19,0 -22.74,4.73 -31.48,14.01 -8.55,9.28 -12.92,20.75 -12.92,34.03 0,13.46 4.37,24.92 12.92,34.21 8.74,9.27 19.29,13.82 31.48,13.82 12.74,0 22.56,-4.37 29.48,-13.28l0 10.73 23.47 0 0 -127.37 -23.47 0 0 47.13c-6.92,-8.92 -16.74,-13.28 -29.48,-13.28zm-20.93 48.04c0,-7.47 2.37,-13.65 7.1,-18.39 4.91,-4.9 10.91,-7.27 18.2,-7.27 7.27,0 13.27,2.37 18.01,7.27 4.73,4.74 7.1,10.92 7.1,18.39 0,7.45 -2.37,13.64 -7.1,18.56 -4.74,4.73 -10.74,7.09 -18.01,7.09 -7.1,0 -13.29,-2.36 -18.2,-7.09 -4.73,-4.92 -7.1,-11.11 -7.1,-18.56zm117.37 -60.79c2.73,-2.72 4.18,-6.18 4.18,-9.99 0,-3.83 -1.45,-7.29 -4.18,-10.2 -2.91,-2.91 -6.37,-4.36 -10.38,-4.36 -3.82,0 -7.28,1.45 -10,4.36 -2.92,2.91 -4.37,6.37 -4.37,10.2 0,3.81 1.45,7.27 4.37,9.99 2.72,2.92 6.18,4.38 10,4.38 4.01,0 7.47,-1.46 10.38,-4.38zm1.45 15.29l-23.47 0 0 90.98 23.47 0 0 -90.98zm44.95 10.2l0 -10.2 -23.47 0 0 90.98 23.47 0 0 -49.12c0,-7.46 1.82,-13.11 5.46,-16.93 3.45,-3.82 8.37,-5.64 14.55,-5.64 5.65,0 10.01,1.64 13.29,4.91 3.09,3.28 4.73,7.83 4.73,13.83l0 52.95 23.48 0 0 -55.86c0,-11.65 -3.28,-20.93 -9.83,-27.66 -6.37,-6.73 -14.56,-10 -24.57,-10 -12.55,0 -21.47,4.18 -27.11,12.74zm121.01 -12.74c-12.2,0 -22.57,4.73 -31.31,14.01 -8.55,9.28 -12.91,20.75 -12.91,34.03 0,13.46 4.36,24.92 12.91,34.21 8.74,9.27 19.11,13.82 31.31,13.82 12.73,0 22.56,-4.37 29.65,-13.28l0 10.73 23.47 0 0 -90.98 -23.47 0 0 10.74c-7.09,-8.92 -16.92,-13.28 -29.65,-13.28zm-20.75 48.04c0,-7.47 2.36,-13.65 7.1,-18.39 4.72,-4.9 10.73,-7.27 18.01,-7.27 7.28,0 13.28,2.37 18.02,7.27 4.91,4.74 7.27,10.92 7.27,18.39 0,7.45 -2.36,13.64 -7.27,18.56 -4.74,4.73 -10.74,7.09 -18.02,7.09 -7.28,0 -13.29,-2.36 -18.01,-7.09 -4.74,-4.92 -7.1,-11.11 -7.1,-18.56zm210.52 -2.56c7.47,-3.45 13.29,-8.54 17.84,-15.27 4.55,-6.74 6.73,-14.02 6.73,-21.84 0,-11.65 -4.18,-21.66 -12.37,-29.85 -8.19,-8.18 -18.2,-12.37 -30.03,-12.37l-50.95 0 0 127.37 25.12 0 0 -44.22 19.1 0 25.66 44.22 27.11 0 -28.21 -48.04zm-5.63 -50.39c3.45,3.63 5.09,8 5.09,13.28 0,5.28 -1.64,9.64 -5.09,13.28 -3.47,3.82 -7.46,5.64 -12.2,5.64l-25.83 0 0 -37.67 25.83 0c4.74,0 8.73,1.83 12.2,5.47zm100.23 73.32c-3.63,3.83 -8.54,5.82 -14.73,5.82 -5.64,0 -10.01,-1.63 -13.11,-4.91 -3.27,-3.27 -4.9,-7.82 -4.9,-13.83l0 -52.95 -23.48 0 0 55.86c0,11.65 3.27,20.93 9.64,27.66 6.55,6.74 14.75,10.01 24.75,10.01 12.56,0 21.48,-4.18 27.11,-12.74l0 10.19 23.47 0 0 -90.98 -23.47 0 0 49.13c0,7.46 -1.82,12.92 -5.28,16.74zm74.24 -45.49c2,-1.27 4.37,-2 7.46,-2 6.74,0 11.65,3.09 14.56,9.29l20.02 -10.92c-3.46,-6.2 -8.37,-10.92 -14.37,-14.38 -6.02,-3.28 -12.74,-4.91 -20.21,-4.91 -9.82,0 -18.01,2.54 -24.74,7.82 -6.55,5.1 -9.82,12.19 -9.82,21.11 0,4.55 0.91,8.37 2.72,11.64 1.64,3.46 4.19,6.19 7.64,8.19 3.46,2.18 6.56,3.82 9.47,4.92 2.91,1.08 6.36,2.18 10.55,3.27 11.1,2.73 16.56,6.19 16.56,10.01 0,5.28 -4.19,7.82 -12.56,7.82 -9.09,0 -15.1,-4 -17.83,-11.83l-20.38 11.47c6.73,14.37 19.47,21.65 38.21,21.65 10.38,0 18.92,-2.55 26.02,-7.46 7.11,-5.1 10.56,-12.37 10.56,-21.65 0,-4.55 -0.91,-8.74 -2.73,-12.2 -1.82,-3.45 -4.36,-6.36 -7.46,-8.54 -3.27,-2.01 -6.55,-3.64 -9.65,-4.92 -3.09,-1.09 -6.73,-1.99 -10.55,-2.91 -11.1,-2.73 -16.56,-6.19 -16.56,-10.01 0,-2.18 1.1,-4 3.09,-5.46zm87.73 -20.38l0 -25.47 -23.47 7.1 0 18.37 -15.83 0 0 22.56 15.83 0 0 37.85c0,12.56 3.46,21.29 10.19,26.03 6.73,4.91 18.02,6.37 33.84,4.54l0 -21.28c-4.54,0.18 -8.18,0.18 -11.27,0 -3.1,-0.19 -5.28,-0.91 -6.92,-2.37 -1.64,-1.46 -2.37,-3.82 -2.37,-6.92l0 -37.85 20.56 0 0 -22.56 -20.56 0zm73.86 -2.54c-12.19,0 -22.57,4.73 -31.3,14.01 -8.55,9.28 -12.92,20.75 -12.92,34.03 0,13.46 4.37,24.92 12.92,34.21 8.73,9.27 19.11,13.82 31.3,13.82 12.74,0 22.57,-4.37 29.66,-13.28l0 10.73 23.47 0 0 -90.98 -23.47 0 0 10.74c-7.09,-8.92 -16.92,-13.28 -29.66,-13.28zm-20.74 48.04c0,-7.47 2.36,-13.65 7.09,-18.39 4.73,-4.9 10.74,-7.27 18.02,-7.27 7.27,0 13.28,2.37 18.01,7.27 4.92,4.74 7.28,10.92 7.28,18.39 0,7.45 -2.36,13.64 -7.28,18.56 -4.73,4.73 -10.74,7.09 -18.01,7.09 -7.28,0 -13.29,-2.36 -18.02,-7.09 -4.73,-4.92 -7.09,-11.11 -7.09,-18.56zm168.67 -34.95c-5.27,-8.73 -13.47,-13.09 -24.75,-13.09 -11.45,0 -19.83,4 -25.29,12.18l0 -9.64 -23.47 0 0 90.98 23.47 0 0 -51.12c0,-6.56 1.64,-11.65 4.74,-15.29 3.08,-3.46 7.09,-5.28 12.37,-5.28 4.91,0 8.55,1.46 11.28,4.55 2.73,3.09 4,7.28 4,12.74l0 54.4 23.48 0 0 -51.12c0,-6.74 1.45,-11.84 4.55,-15.29 2.9,-3.46 7.09,-5.28 12.37,-5.28 4.91,0 8.55,1.46 11.28,4.55 2.73,3.09 4,7.28 4,12.74l0 54.4 23.47 0 0 -56.04c0,-11.47 -3.09,-20.56 -9.27,-27.29 -6.37,-6.74 -14.75,-10.19 -25.11,-10.19 -12.19,0 -21.11,4.36 -27.12,13.09zm173.05 34.95c0,-13.28 -4.73,-24.75 -14.02,-34.03 -9.27,-9.28 -20.74,-14.01 -34.2,-14.01 -13.47,0 -24.93,4.73 -34.21,14.01 -9.28,9.28 -13.83,20.56 -13.83,34.03 0,13.64 4.55,24.92 13.83,34.21 9.28,9.27 20.57,13.82 34.21,13.82 13.65,0 24.93,-4.55 34.2,-13.82 9.29,-9.29 14.02,-20.75 14.02,-34.21zm-72.79 0c0,-7.11 2.37,-13.11 6.92,-18.02 4.73,-4.73 10.55,-7.1 17.65,-7.1 7.09,0 12.92,2.37 17.64,7.1 4.74,4.74 7.11,10.74 7.11,18.02 0,7.27 -2.37,13.28 -7.11,18.01 -4.72,4.73 -10.55,7.1 -17.64,7.1 -7.1,0 -12.92,-2.37 -17.65,-7.1 -4.55,-4.91 -6.92,-10.92 -6.92,-18.01zm101.37 -45.5l-25.84 0 34.58 90.98 26.74 0 34.58 -90.98 -25.84 0 -22.2 63.69 -22.02 -63.69zm117.19 -2.54c-12.19,0 -22.57,4.73 -31.3,14.01 -8.55,9.28 -12.92,20.75 -12.92,34.03 0,13.46 4.37,24.92 12.92,34.21 8.73,9.27 19.11,13.82 31.3,13.82 12.74,0 22.56,-4.37 29.65,-13.28l0 10.73 23.48 0 0 -90.98 -23.48 0 0 10.74c-7.09,-8.92 -16.91,-13.28 -29.65,-13.28zm-20.75 48.04c0,-7.47 2.37,-13.65 7.1,-18.39 4.73,-4.9 10.73,-7.27 18.02,-7.27 7.27,0 13.28,2.37 18.01,7.27 4.91,4.74 7.27,10.92 7.27,18.39 0,7.45 -2.36,13.64 -7.27,18.56 -4.73,4.73 -10.74,7.09 -18.01,7.09 -7.29,0 -13.29,-2.36 -18.02,-7.09 -4.73,-4.92 -7.1,-11.11 -7.1,-18.56z"/>
   <path class="fil1" d="M258.14 464.79l0 44.13c0,13.14 -2.65,23.04 -7.83,29.66l-7.36 0 0 26.78 11.21 0 0 -16.17 55.71 0 0 16.17 11.22 0 0 -26.78 -9.04 0 0 -73.79 -53.91 0zm11.22 44.38l0 -33.9 31.47 0 0 63.31 -37.86 0c4.22,-6.87 6.39,-16.75 6.39,-29.41zm73.92 -20.27l-10.38 0 0 60.29 8.44 0 33.4 -42.32 0 42.32 10.38 0 0 -60.29 -8.44 0 -33.4 42.32 0 -42.32zm68.24 10.37l0 -10.37 -10.49 0 0 84.41 10.49 0 0 -34.48c5.19,7.96 12.79,11.93 22.79,11.93 8.56,0 15.67,-3.01 21.58,-9.16 5.91,-6.15 8.92,-13.75 8.92,-22.55 0,-8.81 -3.01,-16.28 -8.92,-22.43 -5.91,-6.15 -13.14,-9.29 -21.58,-9.29 -10,0 -17.6,3.98 -22.79,11.94zm6.15 35.21c-4.1,-4.22 -6.15,-9.4 -6.15,-15.43 0,-6.15 2.05,-11.22 6.15,-15.32 4.1,-4.22 9.17,-6.27 15.31,-6.27 6.03,0 11.09,2.05 15.2,6.27 4.1,4.1 6.15,9.17 6.15,15.32 0,6.03 -2.05,11.21 -6.15,15.43 -4.11,4.1 -9.17,6.15 -15.2,6.15 -6.14,0 -11.21,-2.05 -15.31,-6.15zm117.94 -15.3c0,-8.81 -2.79,-16.28 -8.45,-22.44 -5.55,-6.27 -12.78,-9.41 -21.58,-9.41 -9.29,0 -16.88,3.02 -22.8,9.05 -5.91,5.92 -8.8,13.51 -8.8,22.67 0,9.05 3.02,16.64 8.93,22.79 6.14,5.91 13.86,8.92 23.39,8.92 11.69,0 20.62,-4.58 26.52,-13.63l-8.92 -5.06c-3.61,5.91 -9.4,8.81 -17.36,8.81 -5.78,0 -10.61,-1.57 -14.47,-4.59 -3.86,-3.01 -6.27,-7.12 -7.35,-12.42l50.52 0c0.24,-1.57 0.37,-3.13 0.37,-4.69zm-17.25 -17.37c3.49,3.01 5.79,7.36 6.63,12.9l-40.27 0c0.84,-5.43 3.25,-9.65 6.98,-12.78 3.75,-3.14 8.32,-4.71 13.88,-4.71 4.94,0 9.28,1.57 12.78,4.59zm79.34 -12.91l-13.5 0 -26.05 26.65 0 -26.65 -10.49 0 0 60.29 10.49 0 0 -28.58 27.49 28.58 13.03 0 -29.78 -31.1 28.81 -29.19zm3.98 10.14l20.62 0 0 50.15 10.49 0 0 -50.15 20.49 0 0 -10.14 -51.6 0 0 10.14zm118.55 20.01c0,-8.81 -3.13,-16.4 -9.28,-22.55 -6.15,-6.15 -13.63,-9.17 -22.55,-9.17 -8.93,0 -16.4,3.02 -22.55,9.17 -6.15,6.15 -9.17,13.63 -9.17,22.55 0,8.92 3.02,16.4 9.17,22.55 6.15,6.15 13.62,9.16 22.55,9.16 8.92,0 16.4,-3.01 22.55,-9.16 6.15,-6.15 9.28,-13.75 9.28,-22.55zm-46.9 15.31c-4.1,-4.1 -6.15,-9.16 -6.15,-15.31 0,-6.15 2.05,-11.22 6.15,-15.32 4.1,-4.09 9.16,-6.14 15.07,-6.14 6.02,0 11.09,2.05 15.19,6.14 4.1,4.1 6.15,9.17 6.15,15.32 0,6.15 -2.05,11.21 -6.15,15.31 -4.1,4.1 -9.17,6.16 -15.19,6.16 -5.91,0 -10.97,-2.06 -15.07,-6.16zm69.81 -35.09l0 -10.37 -10.49 0 0 84.41 10.49 0 0 -34.48c5.18,7.96 12.79,11.93 22.79,11.93 8.56,0 15.67,-3.01 21.58,-9.16 5.91,-6.15 8.92,-13.75 8.92,-22.55 0,-8.81 -3.01,-16.28 -8.92,-22.43 -5.91,-6.15 -13.14,-9.29 -21.58,-9.29 -10,0 -17.61,3.98 -22.79,11.94zm6.15 35.21c-4.1,-4.22 -6.15,-9.4 -6.15,-15.43 0,-6.15 2.05,-11.22 6.15,-15.32 4.1,-4.22 9.16,-6.27 15.31,-6.27 6.03,0 11.1,2.05 15.2,6.27 4.1,4.1 6.14,9.17 6.14,15.32 0,6.03 -2.04,11.21 -6.14,15.43 -4.1,4.1 -9.17,6.15 -15.2,6.15 -6.15,0 -11.21,-2.05 -15.31,-6.15z"/>
   <path class="fil1" d="M276.92 1749.08l-9.46 0 0 19.71 -19.71 0 0 9.46 19.71 0 0 19.82 9.46 0 0 -19.82 19.82 0 0 -9.46 -19.82 0 0 -19.71zm76.67 -9.34c-5.13,-5.01 -11.74,-7.52 -19.71,-7.52 -8.09,0 -14.7,2.51 -19.82,7.52 -5.13,4.9 -7.64,11.28 -7.64,19.25 0,7.87 2.51,14.36 7.64,19.37 5.12,4.9 11.73,7.4 19.82,7.4 0.35,0 1.6,-0.11 3.88,-0.22l-18.91 27.91 11.95 0 25.76 -38.39 -0.12 0c3.3,-4.45 4.9,-9.8 4.9,-16.07 0,-7.86 -2.63,-14.35 -7.75,-19.25zm-7.41 7.18c3.08,3.07 4.68,7.06 4.68,12.07 0,5.01 -1.6,9 -4.68,12.08 -3.19,3.08 -7.29,4.67 -12.3,4.67 -5.01,0 -9.11,-1.59 -12.19,-4.67 -3.19,-3.08 -4.78,-7.07 -4.78,-12.08 0,-5.01 1.59,-9 4.78,-12.07 3.08,-3.08 7.18,-4.56 12.19,-4.56 5.13,0 9.23,1.48 12.3,4.56zm68.7 -7.18c-5.12,-5.01 -11.73,-7.52 -19.71,-7.52 -8.09,0 -14.7,2.51 -19.82,7.52 -5.12,4.9 -7.63,11.28 -7.63,19.25 0,7.87 2.51,14.36 7.63,19.37 5.12,4.9 11.73,7.4 19.82,7.4 0.35,0 1.6,-0.11 3.88,-0.22l-18.91 27.91 11.95 0 25.76 -38.39 -0.12 0c3.3,-4.45 4.9,-9.8 4.9,-16.07 0,-7.86 -2.62,-14.35 -7.75,-19.25zm-7.4 7.18c3.08,3.07 4.67,7.06 4.67,12.07 0,5.01 -1.59,9 -4.67,12.08 -3.19,3.08 -7.3,4.67 -12.31,4.67 -5.01,0 -9.11,-1.59 -12.19,-4.67 -3.19,-3.08 -4.78,-7.07 -4.78,-12.08 0,-5.01 1.59,-9 4.78,-12.07 3.08,-3.08 7.18,-4.56 12.19,-4.56 5.13,0 9.23,1.48 12.31,4.56zm74.62 7.86c0,-7.18 -2.39,-12.77 -7.29,-16.64 -4.68,-3.98 -10.48,-5.92 -17.43,-5.92 -6.73,0 -12.53,1.94 -17.43,5.92 -4.79,3.87 -7.18,9.46 -7.18,16.64 0,7.52 3.3,13.32 9.8,17.43 -8.32,4.22 -12.42,10.7 -12.42,19.37 0,7.29 2.5,12.98 7.63,17.2 5.13,4.1 11.62,6.16 19.6,6.16 7.97,0 14.58,-2.06 19.71,-6.16 5.12,-4.22 7.64,-9.91 7.64,-17.2 0,-8.67 -4.11,-15.15 -12.43,-19.37 6.49,-4.11 9.8,-9.91 9.8,-17.43zm-14.47 -9.12c2.62,2.17 3.87,5.36 3.87,9.35 0,3.98 -1.37,7.06 -3.98,9.34 -2.62,2.28 -6.04,3.42 -10.14,3.42 -4.1,0 -7.52,-1.14 -10.14,-3.42 -2.62,-2.28 -3.98,-5.36 -3.98,-9.34 0,-3.99 1.36,-7.18 3.98,-9.35 2.62,-2.16 5.92,-3.3 10.14,-3.3 4.21,0 7.64,1.14 10.25,3.3zm-22.44 55.49c-3.08,-2.4 -4.56,-5.82 -4.56,-10.26 0,-4.32 1.48,-7.75 4.56,-10.14 3.08,-2.39 7.06,-3.64 12.19,-3.64 5.13,0 9.23,1.25 12.3,3.64 3.08,2.39 4.56,5.82 4.56,10.14 0,4.44 -1.48,7.86 -4.56,10.26 -3.07,2.38 -7.17,3.64 -12.3,3.64 -5.13,0 -9.11,-1.26 -12.19,-3.64zm122.7 -61.41c-5.13,-5.01 -11.74,-7.52 -19.71,-7.52 -8.1,0 -14.7,2.51 -19.82,7.52 -5.13,4.9 -7.64,11.28 -7.64,19.25 0,7.87 2.51,14.36 7.64,19.37 5.12,4.9 11.72,7.4 19.82,7.4 0.34,0 1.59,-0.11 3.87,-0.22l-18.91 27.91 11.96 0 25.75 -38.39 -0.12 0c3.31,-4.45 4.9,-9.8 4.9,-16.07 0,-7.86 -2.62,-14.35 -7.74,-19.25zm-7.41 7.18c3.08,3.07 4.67,7.06 4.67,12.07 0,5.01 -1.59,9 -4.67,12.08 -3.19,3.08 -7.29,4.67 -12.3,4.67 -5.02,0 -9.12,-1.59 -12.2,-4.67 -3.18,-3.08 -4.78,-7.07 -4.78,-12.08 0,-5.01 1.6,-9 4.78,-12.07 3.08,-3.08 7.18,-4.56 12.2,-4.56 5.13,0 9.23,1.48 12.3,4.56zm68.7 -7.18c-5.13,-5.01 -11.74,-7.52 -19.71,-7.52 -8.09,0 -14.7,2.51 -19.82,7.52 -5.13,4.9 -7.64,11.28 -7.64,19.25 0,7.87 2.51,14.36 7.64,19.37 5.12,4.9 11.73,7.4 19.82,7.4 0.35,0 1.59,-0.11 3.87,-0.22l-18.91 27.91 11.96 0 25.75 -38.39 -0.12 0c3.31,-4.45 4.9,-9.8 4.9,-16.07 0,-7.86 -2.61,-14.35 -7.74,-19.25zm-7.41 7.18c3.08,3.07 4.68,7.06 4.68,12.07 0,5.01 -1.6,9 -4.68,12.08 -3.18,3.08 -7.29,4.67 -12.3,4.67 -5.01,0 -9.11,-1.59 -12.19,-4.67 -3.19,-3.08 -4.79,-7.07 -4.79,-12.08 0,-5.01 1.6,-9 4.79,-12.07 3.08,-3.08 7.18,-4.56 12.19,-4.56 5.13,0 9.23,1.48 12.3,4.56zm102.42 56.28l-36.12 0 20.4 -20.29c9.45,-9.45 14.24,-18.22 14.24,-26.31 0,-7.41 -2.51,-13.33 -7.4,-17.77 -4.91,-4.44 -10.71,-6.61 -17.44,-6.61 -5.58,0 -10.48,1.36 -14.93,3.99 -4.43,2.74 -7.85,6.61 -10.24,11.73l8.88 5.24c3.42,-7.17 8.89,-10.71 16.4,-10.71 3.99,0 7.41,1.26 10.15,3.76 2.62,2.62 3.99,6.04 3.99,10.49 0,5.35 -3.77,11.84 -11.29,19.36l-28.13 28.71 0 8.66 51.49 0 0 -10.25zm60.04 0l-36.11 0 20.39 -20.29c9.45,-9.45 14.24,-18.22 14.24,-26.31 0,-7.41 -2.5,-13.33 -7.4,-17.77 -4.9,-4.44 -10.71,-6.61 -17.43,-6.61 -5.59,0 -10.49,1.36 -14.93,3.99 -4.44,2.74 -7.85,6.61 -10.25,11.73l8.88 5.24c3.42,-7.17 8.89,-10.71 16.4,-10.71 4,0 7.42,1.26 10.15,3.76 2.62,2.62 3.99,6.04 3.99,10.49 0,5.35 -3.76,11.84 -11.28,19.36l-28.14 28.71 0 8.66 51.49 0 0 -10.25zm56.4 -37.38l-10.61 0 0 22.57 -29.27 0 28.59 -54.69 -11.39 0 -28.59 54.69 0 9.9 40.66 0 0 15.16 10.61 0 0 -15.16 9.68 0 0 -9.9 -9.68 0 0 -22.57zm62.2 7.87l-41.58 0 0 9.57 41.58 0 0 -9.57zm64.13 29.51l-36.11 0 20.39 -20.29c9.46,-9.45 14.24,-18.22 14.24,-26.31 0,-7.41 -2.51,-13.33 -7.4,-17.77 -4.9,-4.44 -10.71,-6.61 -17.43,-6.61 -5.59,0 -10.48,1.36 -14.93,3.99 -4.44,2.74 -7.86,6.61 -10.25,11.73l8.88 5.24c3.42,-7.17 8.89,-10.71 16.41,-10.71 3.99,0 7.4,1.26 10.14,3.76 2.62,2.62 3.99,6.04 3.99,10.49 0,5.35 -3.77,11.84 -11.28,19.36l-28.14 28.71 0 8.66 51.49 0 0 -10.25zm42.73 -59.47l-28.83 69.72 11.05 0 29.05 -70.3 0 -9.45 -49.78 0 0 10.03 38.51 0zm61.97 29.96l-41.58 0 0 9.57 41.58 0 0 -9.57zm64.14 29.51l-36.12 0 20.4 -20.29c9.45,-9.45 14.23,-18.22 14.23,-26.31 0,-7.41 -2.5,-13.33 -7.4,-17.77 -4.9,-4.44 -10.7,-6.61 -17.43,-6.61 -5.58,0 -10.48,1.36 -14.93,3.99 -4.44,2.74 -7.85,6.61 -10.25,11.73l8.89 5.24c3.41,-7.17 8.88,-10.71 16.4,-10.71 3.99,0 7.41,1.26 10.14,3.76 2.63,2.62 3.99,6.04 3.99,10.49 0,5.35 -3.76,11.84 -11.28,19.36l-28.14 28.71 0 8.66 51.5 0 0 -10.25zm42.72 -59.47l-28.82 69.72 11.04 0 29.05 -70.3 0 -9.45 -49.78 0 0 10.03 38.51 0z"/>
   <path class="fil1" d="M276.92 1600.61l-9.46 0 0 19.71 -19.71 0 0 9.46 19.71 0 0 19.82 9.46 0 0 -19.82 19.82 0 0 -9.46 -19.82 0 0 -19.71zm76.67 -9.34c-5.13,-5.02 -11.74,-7.52 -19.71,-7.52 -8.09,0 -14.7,2.5 -19.82,7.52 -5.13,4.9 -7.64,11.28 -7.64,19.26 0,7.86 2.51,14.35 7.64,19.36 5.12,4.9 11.73,7.41 19.82,7.41 0.35,0 1.6,-0.11 3.88,-0.23l-18.91 27.91 11.95 0 25.76 -38.39 -0.12 0c3.3,-4.45 4.9,-9.8 4.9,-16.06 0,-7.87 -2.63,-14.36 -7.75,-19.26zm-7.41 7.18c3.08,3.07 4.68,7.06 4.68,12.08 0,5.01 -1.6,9 -4.68,12.07 -3.19,3.08 -7.29,4.67 -12.3,4.67 -5.01,0 -9.11,-1.59 -12.19,-4.67 -3.19,-3.07 -4.78,-7.06 -4.78,-12.07 0,-5.02 1.59,-9.01 4.78,-12.08 3.08,-3.08 7.18,-4.56 12.19,-4.56 5.13,0 9.23,1.48 12.3,4.56zm68.7 -7.18c-5.12,-5.02 -11.73,-7.52 -19.71,-7.52 -8.09,0 -14.7,2.5 -19.82,7.52 -5.12,4.9 -7.63,11.28 -7.63,19.26 0,7.86 2.51,14.35 7.63,19.36 5.12,4.9 11.73,7.41 19.82,7.41 0.35,0 1.6,-0.11 3.88,-0.23l-18.91 27.91 11.95 0 25.76 -38.39 -0.12 0c3.3,-4.45 4.9,-9.8 4.9,-16.06 0,-7.87 -2.62,-14.36 -7.75,-19.26zm-7.4 7.18c3.08,3.07 4.67,7.06 4.67,12.08 0,5.01 -1.59,9 -4.67,12.07 -3.19,3.08 -7.3,4.67 -12.31,4.67 -5.01,0 -9.11,-1.59 -12.19,-4.67 -3.19,-3.07 -4.78,-7.06 -4.78,-12.07 0,-5.02 1.59,-9.01 4.78,-12.08 3.08,-3.08 7.18,-4.56 12.19,-4.56 5.13,0 9.23,1.48 12.31,4.56zm74.62 7.86c0,-7.18 -2.39,-12.76 -7.29,-16.63 -4.68,-3.99 -10.48,-5.93 -17.43,-5.93 -6.73,0 -12.53,1.94 -17.43,5.93 -4.79,3.87 -7.18,9.45 -7.18,16.63 0,7.52 3.3,13.32 9.8,17.42 -8.32,4.22 -12.42,10.71 -12.42,19.38 0,7.29 2.5,12.99 7.63,17.2 5.13,4.1 11.62,6.15 19.6,6.15 7.97,0 14.58,-2.05 19.71,-6.15 5.12,-4.21 7.64,-9.91 7.64,-17.2 0,-8.67 -4.11,-15.16 -12.43,-19.38 6.49,-4.1 9.8,-9.9 9.8,-17.42zm-14.47 -9.12c2.62,2.17 3.87,5.36 3.87,9.35 0,3.99 -1.37,7.06 -3.98,9.34 -2.62,2.28 -6.04,3.42 -10.14,3.42 -4.1,0 -7.52,-1.14 -10.14,-3.42 -2.62,-2.28 -3.98,-5.35 -3.98,-9.34 0,-3.99 1.36,-7.18 3.98,-9.35 2.62,-2.16 5.92,-3.3 10.14,-3.3 4.21,0 7.64,1.14 10.25,3.3zm-22.44 55.49c-3.08,-2.4 -4.56,-5.81 -4.56,-10.25 0,-4.33 1.48,-7.76 4.56,-10.14 3.08,-2.4 7.06,-3.65 12.19,-3.65 5.13,0 9.23,1.25 12.3,3.65 3.08,2.38 4.56,5.81 4.56,10.14 0,4.44 -1.48,7.85 -4.56,10.25 -3.07,2.39 -7.17,3.64 -12.3,3.64 -5.13,0 -9.11,-1.25 -12.19,-3.64zm122.7 -61.41c-5.13,-5.02 -11.74,-7.52 -19.71,-7.52 -8.1,0 -14.7,2.5 -19.82,7.52 -5.13,4.9 -7.64,11.28 -7.64,19.26 0,7.86 2.51,14.35 7.64,19.36 5.12,4.9 11.72,7.41 19.82,7.41 0.34,0 1.59,-0.11 3.87,-0.23l-18.91 27.91 11.96 0 25.75 -38.39 -0.12 0c3.31,-4.45 4.9,-9.8 4.9,-16.06 0,-7.87 -2.62,-14.36 -7.74,-19.26zm-7.41 7.18c3.08,3.07 4.67,7.06 4.67,12.08 0,5.01 -1.59,9 -4.67,12.07 -3.19,3.08 -7.29,4.67 -12.3,4.67 -5.02,0 -9.12,-1.59 -12.2,-4.67 -3.18,-3.07 -4.78,-7.06 -4.78,-12.07 0,-5.02 1.6,-9.01 4.78,-12.08 3.08,-3.08 7.18,-4.56 12.2,-4.56 5.13,0 9.23,1.48 12.3,4.56zm68.7 -7.18c-5.13,-5.02 -11.74,-7.52 -19.71,-7.52 -8.09,0 -14.7,2.5 -19.82,7.52 -5.13,4.9 -7.64,11.28 -7.64,19.26 0,7.86 2.51,14.35 7.64,19.36 5.12,4.9 11.73,7.41 19.82,7.41 0.35,0 1.59,-0.11 3.87,-0.23l-18.91 27.91 11.96 0 25.75 -38.39 -0.12 0c3.31,-4.45 4.9,-9.8 4.9,-16.06 0,-7.87 -2.61,-14.36 -7.74,-19.26zm-7.41 7.18c3.08,3.07 4.68,7.06 4.68,12.08 0,5.01 -1.6,9 -4.68,12.07 -3.18,3.08 -7.29,4.67 -12.3,4.67 -5.01,0 -9.11,-1.59 -12.19,-4.67 -3.19,-3.07 -4.79,-7.06 -4.79,-12.07 0,-5.02 1.6,-9.01 4.79,-12.08 3.08,-3.08 7.18,-4.56 12.19,-4.56 5.13,0 9.23,1.48 12.3,4.56zm103.11 7.86c0,-7.18 -2.4,-12.76 -7.3,-16.63 -4.67,-3.99 -10.48,-5.93 -17.43,-5.93 -6.72,0 -12.53,1.94 -17.43,5.93 -4.79,3.87 -7.17,9.45 -7.17,16.63 0,7.52 3.3,13.32 9.79,17.42 -8.32,4.22 -12.42,10.71 -12.42,19.38 0,7.29 2.51,12.99 7.64,17.2 5.12,4.1 11.62,6.15 19.59,6.15 7.98,0 14.58,-2.05 19.71,-6.15 5.13,-4.21 7.64,-9.91 7.64,-17.2 0,-8.67 -4.11,-15.16 -12.42,-19.38 6.49,-4.1 9.8,-9.9 9.8,-17.42zm-14.48 -9.12c2.63,2.17 3.88,5.36 3.88,9.35 0,3.99 -1.37,7.06 -3.98,9.34 -2.63,2.28 -6.05,3.42 -10.15,3.42 -4.1,0 -7.52,-1.14 -10.14,-3.42 -2.62,-2.28 -3.99,-5.35 -3.99,-9.34 0,-3.99 1.37,-7.18 3.99,-9.35 2.62,-2.16 5.92,-3.3 10.14,-3.3 4.22,0 7.64,1.14 10.25,3.3zm-22.44 55.49c-3.07,-2.4 -4.56,-5.81 -4.56,-10.25 0,-4.33 1.49,-7.76 4.56,-10.14 3.08,-2.4 7.06,-3.65 12.19,-3.65 5.13,0 9.23,1.25 12.3,3.65 3.08,2.38 4.56,5.81 4.56,10.14 0,4.44 -1.48,7.85 -4.56,10.25 -3.07,2.39 -7.17,3.64 -12.3,3.64 -5.13,0 -9.11,-1.25 -12.19,-3.64zm110.52 -27.57c0,-12.42 -2.74,-22.45 -8.09,-30.08 -5.36,-7.52 -12.88,-11.28 -22.68,-11.28 -9.79,0 -17.31,3.76 -22.67,11.28 -5.35,7.63 -8.08,17.66 -8.08,30.08 0,12.41 2.73,22.44 8.08,30.07 5.36,7.52 12.88,11.28 22.67,11.28 9.8,0 17.32,-3.76 22.68,-11.28 5.35,-7.63 8.09,-17.66 8.09,-30.07zm-45.69 -23.02c3.53,-5.35 8.43,-8.09 14.92,-8.09 6.5,0 11.51,2.74 15.04,8.09 3.54,5.47 5.24,13.11 5.24,23.02 0,9.91 -1.7,17.54 -5.24,22.9 -3.53,5.35 -8.54,8.09 -15.04,8.09 -6.49,0 -11.39,-2.74 -14.92,-8.09 -3.53,-5.36 -5.24,-12.99 -5.24,-22.9 0,-9.91 1.71,-17.66 5.24,-23.02zm71.31 -6.95l34.07 0 0 -9.91 -43.64 0 -2.96 41.36 22.56 0c4.9,0 9,1.36 12.08,3.98 3.07,2.63 4.56,6.27 4.56,10.83 0,4.56 -1.49,8.09 -4.56,10.7 -3.08,2.63 -7.18,4 -12.3,4 -4.45,0 -8.09,-1.03 -11.17,-3.08 -3.08,-2.05 -5.13,-5.01 -6.15,-8.77l-9 5.12c1.82,5.36 5.12,9.57 9.91,12.53 4.67,3.08 10.14,4.56 16.41,4.56 7.52,0 14,-2.28 19.36,-6.72 5.35,-4.45 7.98,-10.48 7.98,-18.34 0,-7.75 -2.63,-13.9 -7.87,-18.35 -5.12,-4.43 -11.5,-6.71 -19.02,-6.71l-11.62 0 1.36 -21.2zm91.5 30.08l-41.59 0 0 9.57 41.59 0 0 -9.57zm62.53 -7.86l-10.59 0 0 22.56 -29.28 0 28.6 -54.69 -11.4 0 -28.59 54.69 0 9.91 40.67 0 0 15.15 10.59 0 0 -15.15 9.69 0 0 -9.91 -9.69 0 0 -22.56zm68.36 -11.05c0,-7.18 -2.4,-12.76 -7.29,-16.63 -4.67,-3.99 -10.48,-5.93 -17.43,-5.93 -6.73,0 -12.53,1.94 -17.43,5.93 -4.79,3.87 -7.18,9.45 -7.18,16.63 0,7.52 3.3,13.32 9.8,17.42 -8.32,4.22 -12.42,10.71 -12.42,19.38 0,7.29 2.51,12.99 7.64,17.2 5.12,4.1 11.61,6.15 19.59,6.15 7.97,0 14.58,-2.05 19.71,-6.15 5.12,-4.21 7.63,-9.91 7.63,-17.2 0,-8.67 -4.11,-15.16 -12.41,-19.38 6.48,-4.1 9.79,-9.9 9.79,-17.42zm-14.47 -9.12c2.62,2.17 3.87,5.36 3.87,9.35 0,3.99 -1.36,7.06 -3.98,9.34 -2.63,2.28 -6.04,3.42 -10.14,3.42 -4.1,0 -7.52,-1.14 -10.14,-3.42 -2.62,-2.28 -3.99,-5.35 -3.99,-9.34 0,-3.99 1.37,-7.18 3.99,-9.35 2.62,-2.16 5.92,-3.3 10.14,-3.3 4.22,0 7.63,1.14 10.25,3.3zm-22.45 55.49c-3.07,-2.4 -4.55,-5.81 -4.55,-10.25 0,-4.33 1.48,-7.76 4.55,-10.14 3.08,-2.4 7.07,-3.65 12.2,-3.65 5.13,0 9.23,1.25 12.3,3.65 3.08,2.38 4.56,5.81 4.56,10.14 0,4.44 -1.48,7.85 -4.56,10.25 -3.07,2.39 -7.17,3.64 -12.3,3.64 -5.13,0 -9.12,-1.25 -12.2,-3.64zm94 -27.46l-41.58 0 0 9.57 41.58 0 0 -9.57zm12.76 -23.58l16.97 -5.01 0 68.35 10.49 0 0 -79.75 -9.13 0 -20.95 7.29 2.62 9.12zm91.94 53.09l-36.11 0 20.39 -20.29c9.45,-9.45 14.23,-18.22 14.23,-26.31 0,-7.4 -2.5,-13.32 -7.4,-17.77 -4.9,-4.44 -10.7,-6.61 -17.43,-6.61 -5.59,0 -10.48,1.37 -14.92,3.99 -4.45,2.73 -7.86,6.61 -10.26,11.73l8.89 5.24c3.42,-7.17 8.88,-10.71 16.4,-10.71 3.99,0 7.41,1.26 10.14,3.77 2.63,2.61 3.99,6.03 3.99,10.47 0,5.36 -3.76,11.85 -11.28,19.37l-28.14 28.71 0 8.66 51.5 0 0 -10.25z"/>
   <path class="fil1" d="M257.28 1904.27c-7.86,8.09 -11.85,17.77 -11.85,29.17 0,11.96 4.11,21.75 12.43,29.51 8.31,7.86 18.68,11.73 31.1,11.73 7.39,0 13.89,-1.03 19.36,-2.96l0 -3.65c-5.24,2.17 -11.74,3.19 -19.36,3.19 -11.51,0 -20.97,-3.53 -28.6,-10.71 -7.52,-7.18 -11.28,-16.17 -11.28,-27.11 0,-10.82 3.65,-19.71 11.05,-26.89 7.4,-7.29 16.3,-10.94 26.77,-10.94 10.14,0 18.69,3.42 25.64,10.26 6.95,6.83 10.48,15.26 10.48,25.29 0,6.49 -1.03,11.5 -3.08,14.92 -2.16,3.42 -4.89,5.13 -8.43,5.13 -4.78,0 -7.17,-3.31 -7.17,-10.02l0 -25.18 -8.78 0 0 4.1c-3.08,-3.31 -6.95,-5.02 -11.5,-5.02 -5.13,0 -9.45,1.71 -12.88,5.25 -3.3,3.52 -5.01,7.97 -5.01,13.1 0,5.12 1.71,9.57 5.01,13.09 3.43,3.54 7.75,5.25 12.88,5.25 5.13,0 9.11,-1.94 12.19,-5.81 1.82,6.38 6.37,9.57 13.56,9.57 4.66,0 8.65,-2.05 11.95,-6.15 3.31,-4.22 5.01,-10.37 5.01,-18.23 0,-6.61 -1.59,-12.88 -4.66,-18.69 -3.08,-5.8 -7.75,-10.6 -13.79,-14.35 -6.26,-3.99 -13.33,-5.92 -21.42,-5.92 -11.73,0 -21.64,3.98 -29.62,12.07zm17.78 29.17c0,-3.08 1.02,-5.48 2.96,-7.3 2.05,-1.93 4.56,-2.84 7.4,-2.84 2.86,0 5.24,0.91 7.18,2.84 1.93,1.82 2.96,4.22 2.96,7.3 0,2.96 -1.03,5.46 -2.96,7.4 -1.94,1.82 -4.32,2.73 -7.18,2.73 -2.84,0 -5.35,-0.91 -7.4,-2.73 -1.94,-1.94 -2.96,-4.44 -2.96,-7.4zm120.3 0c0,-8.32 -2.96,-15.5 -8.77,-21.31 -5.81,-5.81 -12.87,-8.66 -21.3,-8.66 -8.44,0 -15.5,2.85 -21.31,8.66 -5.81,5.81 -8.66,12.87 -8.66,21.31 0,8.43 2.85,15.49 8.66,21.3 5.81,5.81 12.87,8.66 21.31,8.66 8.43,0 15.49,-2.85 21.3,-8.66 5.81,-5.81 8.77,-12.99 8.77,-21.3zm-44.32 14.46c-3.87,-3.87 -5.8,-8.65 -5.8,-14.46 0,-5.81 1.93,-10.6 5.8,-14.47 3.88,-3.88 8.66,-5.82 14.25,-5.82 5.69,0 10.48,1.94 14.35,5.82 3.87,3.87 5.81,8.66 5.81,14.47 0,5.81 -1.94,10.59 -5.81,14.46 -3.87,3.88 -8.66,5.81 -14.35,5.81 -5.59,0 -10.37,-1.93 -14.25,-5.81zm112.91 -14.46c0,-8.32 -2.96,-15.5 -8.78,-21.31 -5.81,-5.81 -12.87,-8.66 -21.3,-8.66 -8.43,0 -15.49,2.85 -21.31,8.66 -5.8,5.81 -8.66,12.87 -8.66,21.31 0,8.43 2.86,15.49 8.66,21.3 5.82,5.81 12.88,8.66 21.31,8.66 8.43,0 15.49,-2.85 21.3,-8.66 5.82,-5.81 8.78,-12.99 8.78,-21.3zm-44.33 14.46c-3.87,-3.87 -5.8,-8.65 -5.8,-14.46 0,-5.81 1.93,-10.6 5.8,-14.47 3.88,-3.88 8.66,-5.82 14.25,-5.82 5.69,0 10.48,1.94 14.35,5.82 3.87,3.87 5.82,8.66 5.82,14.47 0,5.81 -1.95,10.59 -5.82,14.46 -3.87,3.88 -8.66,5.81 -14.35,5.81 -5.59,0 -10.37,-1.93 -14.25,-5.81zm112.91 -14.46c0,-8.32 -2.96,-15.5 -8.77,-21.31 -5.82,-5.81 -12.88,-8.66 -21.31,-8.66 -8.43,0 -15.49,2.85 -21.3,8.66 -5.81,5.81 -8.66,12.87 -8.66,21.31 0,8.43 2.85,15.49 8.66,21.3 5.81,5.81 12.87,8.66 21.3,8.66 8.43,0 15.49,-2.85 21.31,-8.66 5.81,-5.81 8.77,-12.99 8.77,-21.3zm-44.32 14.46c-3.87,-3.87 -5.81,-8.65 -5.81,-14.46 0,-5.81 1.94,-10.6 5.81,-14.47 3.87,-3.88 8.66,-5.82 14.24,-5.82 5.7,0 10.48,1.94 14.36,5.82 3.87,3.87 5.81,8.66 5.81,14.47 0,5.81 -1.94,10.59 -5.81,14.46 -3.88,3.88 -8.66,5.81 -14.36,5.81 -5.58,0 -10.37,-1.93 -14.24,-5.81zm70.63 -42.95l0 -15.94 -9.92 2.96 0 12.98 -11.28 0 0 9.58 11.28 0 0 30.87c0,6.95 2.05,11.74 6.04,14.35 3.98,2.62 10.25,3.31 19.03,2.17l0 -8.89c-3.31,0.11 -6.15,0.23 -8.43,0.11 -2.29,0 -3.99,-0.57 -5.02,-1.82 -1.14,-1.14 -1.7,-3.07 -1.7,-5.92l0 -30.87 15.15 0 0 -9.58 -15.15 0zm37.14 -26.2l-9.92 0 0 83.17 9.92 0 0 -83.17zm24.83 13.9c1.25,-1.26 1.93,-2.85 1.93,-4.67 0,-1.82 -0.68,-3.42 -1.93,-4.79 -1.26,-1.25 -2.85,-1.93 -4.68,-1.93 -1.93,0 -3.52,0.68 -4.78,1.93 -1.25,1.37 -1.93,2.97 -1.93,4.79 0,1.82 0.68,3.41 1.93,4.67 1.26,1.25 2.85,1.94 4.78,1.94 1.83,0 3.42,-0.69 4.68,-1.94zm0.23 12.3l-9.92 0 0 56.97 9.92 0 0 -56.97zm56.95 54.46c4.56,-2.62 8.09,-6.27 10.6,-10.83l-8.43 -4.89c-1.59,3.07 -3.87,5.47 -6.95,7.18 -3.07,1.82 -6.49,2.73 -10.25,2.73 -5.7,0 -10.48,-1.94 -14.36,-5.81 -3.76,-3.99 -5.69,-8.77 -5.69,-14.35 0,-5.71 1.93,-10.49 5.69,-14.47 3.88,-3.88 8.66,-5.82 14.36,-5.82 3.76,0 7.18,0.91 10.25,2.74 2.96,1.82 5.13,4.22 6.61,7.29l8.31 -4.78c-2.16,-4.56 -5.58,-8.21 -10.02,-10.94 -4.44,-2.61 -9.57,-3.99 -15.15,-3.99 -8.55,0 -15.72,2.85 -21.42,8.66 -5.69,5.7 -8.55,12.76 -8.55,21.31 0,8.54 2.86,15.6 8.55,21.42 5.7,5.69 12.87,8.54 21.42,8.54 5.46,0 10.48,-1.36 15.03,-3.99zm30.32 -46.26l0 -30.98 -9.92 0 0 79.75 9.92 0 0 -30.19c0,-6.27 1.48,-10.94 4.44,-14.13 2.96,-3.07 6.95,-4.67 12.08,-4.67 4.44,0 7.86,1.25 10.36,3.87 2.51,2.63 3.76,6.15 3.76,10.71l0 34.41 9.91 0 0 -34.98c0,-7.18 -2.05,-12.98 -6.03,-17.2 -3.99,-4.21 -9.34,-6.27 -16.07,-6.27 -8.31,0 -14.47,3.2 -18.45,9.68zm64.25 0l0 -8.2 -9.91 0 0 56.97 9.91 0 0 -30.19c0,-6.27 1.48,-10.94 4.44,-14.13 2.96,-3.07 6.95,-4.67 12.08,-4.67 4.45,0 7.86,1.25 10.37,3.87 2.5,2.63 3.76,6.15 3.76,10.71l0 34.41 9.91 0 0 -34.98c0,-7.18 -2.05,-12.98 -6.04,-17.2 -3.99,-4.21 -9.34,-6.27 -16.07,-6.27 -8.31,0 -14.46,3.2 -18.45,9.68zm79.98 -9.68c-7.98,0 -14.81,2.97 -20.4,8.77 -5.58,5.82 -8.43,12.88 -8.43,21.2 0,8.31 2.85,15.49 8.43,21.3 5.59,5.81 12.31,8.66 20.4,8.66 9.46,0 16.63,-3.76 21.53,-11.28l0 9.8 9.91 0 0 -56.97 -9.91 0 0 9.8c-4.9,-7.52 -12.07,-11.28 -21.53,-11.28zm-13.11 44.55c-3.87,-3.99 -5.8,-8.89 -5.8,-14.58 0,-5.81 1.93,-10.6 5.8,-14.47 3.88,-3.99 8.66,-5.92 14.37,-5.92 5.8,0 10.59,1.93 14.46,5.92 3.87,3.87 5.81,8.66 5.81,14.47 0,5.69 -1.94,10.59 -5.81,14.58 -3.87,3.87 -8.66,5.81 -14.46,5.81 -5.71,0 -10.49,-1.94 -14.37,-5.81z"/>
   <path class="fil0" d="M313.64 1417.89c4.16,-2.4 7.38,-5.63 9.62,-9.62l-6.23 -3.54c-1.54,2.92 -3.85,5.23 -6.86,7 -3.07,1.77 -6.46,2.69 -10.16,2.69 -6.23,0 -11.31,-2 -15.22,-6 -3.93,-3.92 -5.85,-8.93 -5.85,-14.92 0,-6.08 1.92,-11.09 5.85,-15.01 3.91,-4 8.99,-6 15.22,-6 3.7,0 7.09,0.84 10.16,2.62 3.01,1.77 5.32,4.15 6.86,7.14l6.23 -3.61c-2.31,-4 -5.55,-7.15 -9.7,-9.54 -4.15,-2.38 -8.69,-3.54 -13.55,-3.54 -8.23,0 -14.92,2.69 -20.23,8.08 -5.3,5.31 -7.92,11.93 -7.92,19.86 0,7.92 2.62,14.54 7.92,19.84 5.31,5.39 12,8.08 20.23,8.08 5.01,0 9.55,-1.15 13.63,-3.53zm43.16 -19.94l0 -15.99 -6.7 0 0 38.46 6.7 0 0 -16.08 19.92 0 0 16.08 6.7 0 0 -38.46 -6.7 0 0 15.99 -19.92 0zm54.08 -17c-5.38,0 -10,2 -13.76,5.93 -3.77,3.93 -5.7,8.69 -5.7,14.31 0,5.61 1.93,10.47 5.7,14.38 3.76,3.93 8.3,5.85 13.76,5.85 6.39,0 11.24,-2.54 14.55,-7.61l0 6.61 6.69 0 0 -38.46 -6.69 0 0 6.61c-3.31,-5.08 -8.16,-7.62 -14.55,-7.62zm-8.84 30.09c-2.62,-2.7 -3.93,-6.01 -3.93,-9.85 0,-3.93 1.31,-7.16 3.93,-9.78 2.61,-2.69 5.84,-3.99 9.69,-3.99 3.92,0 7.15,1.3 9.77,3.99 2.61,2.62 3.93,5.85 3.93,9.78 0,3.84 -1.32,7.15 -3.93,9.85 -2.62,2.61 -5.85,3.92 -9.77,3.92 -3.85,0 -7.08,-1.31 -9.69,-3.92zm59.47 -9.62l-12.08 -19.46 -7.16 0 0 38.46 6.62 0 0 -27.93 12.24 19.7 0.84 0 12.23 -19.7 0 27.93 6.54 0 0 -38.46 -7.15 0 -12.08 19.46zm36.08 -19.46l-6.61 0 0 38.46 5.38 0 21.32 -27.01 0 27.01 6.61 0 0 -38.46 -5.39 0 -21.31 27 0 -27zm85.86 10.45c0,-3.15 -1.07,-5.69 -3.15,-7.61 -2.15,-1.93 -5.15,-2.84 -8.92,-2.84l-17.7 0 0 38.46 19.24 0c3.92,0 6.92,-1 9.07,-2.99 2.16,-1.94 3.24,-4.55 3.24,-7.86 0,-4.3 -2,-7.31 -5.93,-8.92 2.77,-1.77 4.15,-4.54 4.15,-8.24zm-6.53 0.47c0,3.46 -1.93,5.15 -5.85,5.15l-10.85 0 0 -10.08 10.85 0c3.92,0 5.85,1.62 5.85,4.93zm-16.7 11.08l12.31 0c1.93,0 3.46,0.46 4.54,1.31 1,0.91 1.54,2.15 1.54,3.77 0,1.69 -0.54,3 -1.54,3.92 -1.08,0.92 -2.61,1.39 -4.54,1.39l-12.31 0 0 -10.39zm60.47 14.77c3.08,-1.77 5.46,-4.23 7.16,-7.31l-5.7 -3.31c-1.08,2.08 -2.61,3.69 -4.69,4.85 -2.07,1.23 -4.38,1.85 -6.93,1.85 -3.84,0 -7.07,-1.31 -9.69,-3.93 -2.53,-2.69 -3.84,-5.92 -3.84,-9.69 0,-3.86 1.31,-7.08 3.84,-9.78 2.62,-2.61 5.85,-3.92 9.69,-3.92 2.55,0 4.86,0.62 6.93,1.85 2,1.23 3.46,2.84 4.46,4.93l5.62 -3.24c-1.46,-3.08 -3.77,-5.54 -6.77,-7.39 -3,-1.76 -6.46,-2.69 -10.24,-2.69 -5.77,0 -10.61,1.92 -14.46,5.85 -3.84,3.85 -5.77,8.62 -5.77,14.39 0,5.77 1.93,10.54 5.77,14.46 3.85,3.85 8.69,5.77 14.46,5.77 3.7,0 7.08,-0.93 10.16,-2.69zm27.48 -46.01c0,-1.16 -0.4,-2.07 -1.16,-2.84 -0.77,-0.78 -1.7,-1.16 -2.85,-1.16 -1.16,0 -2.07,0.38 -2.92,1.16 -0.77,0.77 -1.16,1.68 -1.16,2.84 0,1.15 0.39,2.08 1.16,2.92 0.85,0.77 1.76,1.15 2.92,1.15 1.15,0 2.08,-0.38 2.85,-1.15 0.76,-0.84 1.16,-1.77 1.16,-2.92zm14.61 0c0,-1.16 -0.39,-2.07 -1.15,-2.84 -0.78,-0.78 -1.7,-1.16 -2.85,-1.16 -1.16,0 -2.07,0.38 -2.92,1.16 -0.78,0.77 -1.16,1.68 -1.16,2.84 0,1.15 0.38,2.08 1.16,2.92 0.85,0.77 1.76,1.15 2.92,1.15 1.15,0 2.07,-0.38 2.85,-1.15 0.76,-0.84 1.15,-1.77 1.15,-2.92zm8.31 28.54c0,-5.61 -1.77,-10.38 -5.38,-14.31 -3.54,-4 -8.16,-6 -13.78,-6 -5.92,0 -10.77,1.92 -14.54,5.77 -3.77,3.78 -5.62,8.62 -5.62,14.47 0,5.77 1.93,10.61 5.7,14.53 3.92,3.78 8.84,5.7 14.92,5.7 7.47,0 13.16,-2.93 16.93,-8.7l-5.7 -3.23c-2.3,3.77 -6,5.63 -11.08,5.63 -3.69,0 -6.77,-1 -9.23,-2.93 -2.46,-1.93 -3.99,-4.54 -4.69,-7.92l32.24 0c0.15,-1.01 0.23,-2.01 0.23,-3.01zm-11.01 -11.07c2.24,1.91 3.7,4.68 4.24,8.23l-25.7 0c0.54,-3.47 2.08,-6.16 4.46,-8.16 2.38,-2 5.31,-3 8.85,-3 3.15,0 5.93,1 8.15,2.93zm69.09 26.15c3.62,-3.46 5.39,-7.76 5.39,-13 0,-5.15 -1.7,-9.38 -5.08,-12.69 -3.31,-3.31 -7.38,-4.92 -12.23,-4.92 -2.54,0 -5.08,0.53 -7.46,1.53 -2.47,1 -4.47,2.54 -6.08,4.46 0.69,-2.38 1.92,-4.3 3.53,-5.84 1.62,-1.54 4.16,-3.08 7.63,-4.54l2.46 -1 2.53 -1.08c0.08,-0.07 0.23,-0.16 0.47,-0.23 0.23,-0.08 0.46,-0.23 0.84,-0.39 0.31,-0.15 0.62,-0.3 0.93,-0.46 0.84,-0.38 2.15,-1.15 4.07,-2.3 0.39,-0.24 0.7,-0.39 0.92,-0.62 0.24,-0.23 0.47,-0.46 0.69,-0.69 0.24,-0.24 0.39,-0.39 0.47,-0.55 0.08,-0.07 0.31,-0.31 0.54,-0.69 0.23,-0.3 0.38,-0.53 0.46,-0.61 0.84,-1.08 1.39,-2.54 1.77,-4.31l-5.39 -3.08c-0.23,2.85 -2.46,5.32 -6.54,7.39l-4.15 1.85c-0.46,0.23 -1,0.46 -1.62,0.69 -0.69,0.31 -1.22,0.54 -1.61,0.77 -0.46,0.23 -0.85,0.38 -1.16,0.54 -5.92,2.84 -9.92,6.08 -11.85,9.61 -1.92,3.46 -2.84,8.54 -2.84,15.16 0,5.85 1.84,10.7 5.54,14.46 3.69,3.78 8.39,5.62 14.07,5.62 5.47,0 10.09,-1.69 13.7,-5.08zm-4.85 -4.68c-2.22,2.22 -5.23,3.3 -8.85,3.3 -3.61,0 -6.61,-1.15 -8.99,-3.39 -2.39,-2.23 -3.62,-5.15 -3.62,-8.61 0,-3.32 1.3,-6.08 3.92,-8.16 2.7,-2.08 5.7,-3.15 8.93,-3.15 3.61,0 6.61,1.07 8.85,3.22 2.23,2.24 3.3,5.01 3.3,8.47 0,3.31 -1.15,6.08 -3.54,8.32zm18.41 -29.7l-7.07 0 16.69 38.53 -0.62 1.39c-2.23,5.46 -5.69,8.08 -10.38,7.7l0 6.23c3.76,0.23 7.15,-0.77 10.15,-3.08 3.01,-2.23 5.32,-5.54 6.93,-9.92l15.69 -40.85 -7.15 0 -11.08 30.15 -13.16 -30.15zm39.3 0l0 17.84c0,6.08 -1.24,10.85 -3.7,14.24l-4.69 0 0 16.69 6.62 0 0 -10.31 28.85 0 0 10.31 6.62 0 0 -16.69 -5.31 0 0 -32.08 -28.39 0zm6.62 17.84l0 -11.61 15.15 0 0 25.85 -17.86 0c1.78,-3.85 2.71,-8.62 2.71,-14.24zm69.95 1.46c0,-5.61 -1.77,-10.38 -5.38,-14.31 -3.55,-4 -8.16,-6 -13.78,-6 -5.92,0 -10.77,1.92 -14.55,5.77 -3.76,3.78 -5.61,8.62 -5.61,14.47 0,5.77 1.93,10.61 5.7,14.53 3.92,3.78 8.84,5.7 14.92,5.7 7.47,0 13.16,-2.93 16.93,-8.7l-5.7 -3.23c-2.31,3.77 -6,5.63 -11.08,5.63 -3.69,0 -6.77,-1 -9.23,-2.93 -2.46,-1.93 -3.99,-4.54 -4.69,-7.92l32.24 0c0.15,-1.01 0.23,-2.01 0.23,-3.01zm-11.01 -11.07c2.24,1.91 3.7,4.68 4.23,8.23l-25.69 0c0.54,-3.47 2.07,-6.16 4.46,-8.16 2.38,-2 5.31,-3 8.85,-3 3.15,0 5.92,1 8.15,2.93zm12.83 -1.78l13.16 0 0 32.01 6.69 0 0 -32.01 13.08 0 0 -6.45 -32.93 0 0 6.45zm63.93 24.85c5.39,5.47 12,8.16 19.78,8.16 7.77,0 14.39,-2.69 19.77,-8.16 5.46,-5.46 8.16,-12 8.16,-19.76 0,-7.77 -2.7,-14.4 -8.16,-19.79 -5.38,-5.46 -12,-8.15 -19.77,-8.15 -7.78,0 -14.39,2.69 -19.78,8.15 -5.38,5.39 -8.07,12.02 -8.07,19.79 0,7.69 2.69,14.3 8.07,19.76zm34.55 -4.84c-3.92,4 -8.84,6 -14.77,6 -5.93,0 -10.86,-2 -14.85,-6 -3.93,-4.08 -5.92,-9.08 -5.92,-14.92 0,-5.93 1.99,-10.85 5.92,-14.93 3.99,-4.08 8.92,-6.08 14.85,-6.08 5.93,0 10.85,2 14.77,6.08 4,3.99 6,9 6,14.93 0,5.84 -2,10.84 -6,14.92zm59.47 -7.23c0,-5.62 -2,-10.47 -5.92,-14.39 -3.92,-3.93 -8.69,-5.85 -14.39,-5.85 -5.7,0 -10.46,1.92 -14.39,5.85 -3.92,3.92 -5.85,8.69 -5.85,14.39 0,5.69 1.93,10.47 5.85,14.38 3.93,3.93 8.69,5.85 14.39,5.85 5.7,0 10.47,-1.92 14.39,-5.85 3.92,-3.91 5.92,-8.77 5.92,-14.38zm-29.92 9.77c-2.62,-2.62 -3.93,-5.85 -3.93,-9.77 0,-3.93 1.31,-7.16 3.93,-9.78 2.61,-2.61 5.84,-3.92 9.61,-3.92 3.85,0 7.08,1.31 9.69,3.92 2.62,2.62 3.93,5.85 3.93,9.78 0,3.92 -1.31,7.15 -3.93,9.77 -2.61,2.61 -5.84,3.92 -9.69,3.92 -3.77,0 -7,-1.31 -9.61,-3.92zm76.24 -9.77c0,-5.62 -2,-10.47 -5.92,-14.39 -3.93,-3.93 -8.7,-5.85 -14.4,-5.85 -5.69,0 -10.46,1.92 -14.39,5.85 -3.91,3.92 -5.84,8.69 -5.84,14.39 0,5.69 1.93,10.47 5.84,14.38 3.93,3.93 8.7,5.85 14.39,5.85 5.7,0 10.47,-1.92 14.4,-5.85 3.92,-3.91 5.92,-8.77 5.92,-14.38zm-29.93 9.77c-2.61,-2.62 -3.93,-5.85 -3.93,-9.77 0,-3.93 1.32,-7.16 3.93,-9.78 2.61,-2.61 5.85,-3.92 9.61,-3.92 3.85,0 7.08,1.31 9.7,3.92 2.61,2.62 3.92,5.85 3.92,9.78 0,3.92 -1.31,7.15 -3.92,9.77 -2.62,2.61 -5.85,3.92 -9.7,3.92 -3.76,0 -7,-1.31 -9.61,-3.92zm31.99 -22.55l13.16 0 0 32.01 6.7 0 0 -32.01 13.07 0 0 -6.45 -32.93 0 0 6.45zm39.93 15.55c0,4 -0.62,6.77 -1.93,8.3 -1.3,1.62 -3.23,2.24 -5.92,1.86l0 6.3c4.77,0.46 8.39,-0.61 10.85,-3.23 2.46,-2.54 3.69,-6.93 3.69,-13.08l0 -15.7 15.16 0 0 32.01 6.69 0 0 -38.46 -28.54 0 0 22zm45.31 -22l-6.62 0 0 38.46 5.39 0 21.31 -27.01 0 27.01 6.62 0 0 -38.46 -5.39 0 -21.31 27 0 -27zm51.17 20.38c-3.16,0 -5.46,-0.61 -6.93,-1.93 -1.53,-1.22 -2.31,-3.23 -2.31,-6.07l0 -12.38 -6.69 0 0 12.76c0,4.55 1.31,7.93 4,10.31 2.69,2.39 6.47,3.55 11.46,3.55 3.77,0 7.23,-0.7 10.39,-2.01l0 13.85 6.69 0 0 -38.46 -6.69 0 0 18.38c-3.08,1.31 -6.38,2 -9.92,2zm33.46 -4.39l0 -15.99 -6.69 0 0 38.46 6.69 0 0 -16.08 19.93 0 0 16.08 6.69 0 0 -38.46 -6.69 0 0 15.99 -19.93 0zm75.17 3.24c0,-5.62 -2,-10.47 -5.92,-14.39 -3.93,-3.93 -8.7,-5.85 -14.39,-5.85 -5.7,0 -10.47,1.92 -14.39,5.85 -3.92,3.92 -5.84,8.69 -5.84,14.39 0,5.69 1.92,10.47 5.84,14.38 3.92,3.93 8.69,5.85 14.39,5.85 5.69,0 10.46,-1.92 14.39,-5.85 3.92,-3.91 5.92,-8.77 5.92,-14.38zm-29.93 9.77c-2.61,-2.62 -3.92,-5.85 -3.92,-9.77 0,-3.93 1.31,-7.16 3.92,-9.78 2.61,-2.61 5.85,-3.92 9.62,-3.92 3.85,0 7.07,1.31 9.69,3.92 2.62,2.62 3.92,5.85 3.92,9.78 0,3.92 -1.3,7.15 -3.92,9.77 -2.62,2.61 -5.84,3.92 -9.69,3.92 -3.77,0 -7.01,-1.31 -9.62,-3.92z"/>
  </g>
 </g>
</svg>
